<svg xmlns="http://www.w3.org/2000/svg" xmlns:xlink="http://www.w3.org/1999/xlink" width="500" zoomAndPan="magnify" viewBox="0 0 375 374.999991" height="500" preserveAspectRatio="xMidYMid meet" version="1.0"><defs><g/></defs><rect x="-37.5" width="450" fill="#ffffff" y="-37.499999" height="449.999989" fill-opacity="1"/><rect x="-37.5" width="450" fill="#fff9f9" y="-37.499999" height="449.999989" fill-opacity="1"/><g fill="#171616" fill-opacity="1"><g transform="translate(90.249209, 228.768911)"><g><path d="M 31.421875 -85.5625 L 31.421875 -34.21875 C 31.421875 -32.507812 32.03125 -31.039062 33.25 -29.8125 C 34.46875 -28.59375 35.929688 -27.984375 37.640625 -27.984375 C 39.359375 -27.984375 40.828125 -28.59375 42.046875 -29.8125 C 43.265625 -31.039062 43.875 -32.507812 43.875 -34.21875 C 43.875 -35.9375 43.265625 -37.425781 42.046875 -38.6875 C 40.828125 -39.945312 39.359375 -40.578125 37.640625 -40.578125 L 33.125 -40.578125 L 33.125 -70.65625 L 37.640625 -70.65625 C 42.703125 -70.65625 47.410156 -69.695312 51.765625 -67.78125 C 56.128906 -65.863281 59.976562 -63.191406 63.3125 -59.765625 C 66.65625 -56.347656 69.265625 -52.4375 71.140625 -48.03125 C 73.015625 -43.632812 73.953125 -38.910156 73.953125 -33.859375 C 73.953125 -28.890625 73.015625 -24.203125 71.140625 -19.796875 C 69.265625 -15.398438 66.65625 -11.53125 63.3125 -8.1875 C 59.976562 -4.84375 56.128906 -2.234375 51.765625 -0.359375 C 47.410156 1.503906 42.703125 2.4375 37.640625 2.4375 C 32.671875 2.4375 27.984375 1.503906 23.578125 -0.359375 C 19.179688 -2.234375 15.3125 -4.84375 11.96875 -8.1875 C 8.632812 -11.53125 6.03125 -15.398438 4.15625 -19.796875 C 2.28125 -24.203125 1.34375 -28.890625 1.34375 -33.859375 L 1.34375 -85.5625 Z M 31.421875 -85.5625 "/></g></g></g><path stroke-linecap="butt" transform="matrix(0.75, 0, 0, 0.75, 141.700015, 113.047617)" fill="none" stroke-linejoin="miter" d="M 59.217692 93.9886 C 60.978109 93.040683 62.009359 91.717766 62.31665 90.019849 C 62.629151 88.301099 62.248942 86.754224 61.186442 85.384432 C 60.12915 83.993807 58.368734 83.295891 55.915608 83.295891 C 53.8479 83.217766 52.2854 83.801099 51.2229 85.035474 C 50.1604 86.254224 49.608316 87.670891 49.571858 89.295891 C 49.5354 90.915683 50.00415 92.3636 50.993733 93.639641 C 51.978108 94.89485 53.540608 95.525058 55.686442 95.525058 L 89.259361 95.525058 L 89.259361 123.999018 L 55.686442 123.999018 C 50.931233 123.999018 46.498941 123.113602 42.389566 121.332351 C 38.274982 119.55631 34.634357 117.08756 31.46769 113.920893 C 28.301023 110.749017 25.827065 107.108392 24.051023 102.999017 C 22.274981 98.884433 21.384356 94.452141 21.384356 89.702141 C 21.384356 83.462557 22.785398 77.775057 25.587481 72.634432 C 28.40519 67.478181 32.399982 63.347973 37.577066 60.238597 C 42.754149 57.108389 48.905191 55.504222 56.030192 55.426097 C 59.738525 55.426097 63.478109 55.785472 67.243734 56.499014 C 71.009359 57.196931 74.551026 58.535472 77.873943 60.525056 C 81.19686 62.499014 83.957277 65.420889 86.160402 69.306306 C 87.108319 70.967765 87.790611 72.946932 88.217694 75.243807 C 88.660402 77.525057 88.827069 79.868807 88.712486 82.285474 C 88.592694 84.696932 88.103111 86.957349 87.233319 89.061516 C 86.363527 91.150058 85.019777 92.790683 83.207277 93.9886 Z M 59.217692 93.9886 " stroke="#fff9f9" stroke-width="8.900025" stroke-opacity="1" stroke-miterlimit="4"/><g fill="#171616" fill-opacity="1"><g transform="translate(156.934389, 206.047611)"><g><path d="M 29.1875 -22.515625 C 30.5 -23.222656 31.269531 -24.210938 31.5 -25.484375 C 31.738281 -26.765625 31.457031 -27.925781 30.65625 -28.96875 C 29.851562 -30.007812 28.535156 -30.53125 26.703125 -30.53125 C 25.160156 -30.582031 23.988281 -30.148438 23.1875 -29.234375 C 22.382812 -28.316406 21.96875 -27.25 21.9375 -26.03125 C 21.90625 -24.8125 22.257812 -23.726562 23 -22.78125 C 23.75 -21.832031 24.921875 -21.359375 26.515625 -21.359375 L 51.703125 -21.359375 L 51.703125 0 L 26.515625 0 C 22.960938 0 19.640625 -0.664062 16.546875 -2 C 13.460938 -3.332031 10.734375 -5.1875 8.359375 -7.5625 C 5.992188 -9.9375 4.140625 -12.664062 2.796875 -15.75 C 1.460938 -18.832031 0.796875 -22.15625 0.796875 -25.71875 C 0.796875 -30.40625 1.847656 -34.675781 3.953125 -38.53125 C 6.066406 -42.394531 9.066406 -45.5 12.953125 -47.84375 C 16.835938 -50.1875 21.445312 -51.382812 26.78125 -51.4375 C 29.570312 -51.4375 32.375 -51.171875 35.1875 -50.640625 C 38.007812 -50.109375 40.664062 -49.097656 43.15625 -47.609375 C 45.65625 -46.128906 47.734375 -43.9375 49.390625 -41.03125 C 50.109375 -39.78125 50.628906 -38.296875 50.953125 -36.578125 C 51.273438 -34.859375 51.390625 -33.09375 51.296875 -31.28125 C 51.210938 -29.46875 50.84375 -27.773438 50.1875 -26.203125 C 49.539062 -24.640625 48.535156 -23.410156 47.171875 -22.515625 Z M 29.1875 -22.515625 "/></g></g></g><path stroke-linecap="butt" transform="matrix(0.75, 0, 0, 0.75, 180.960768, 138.025978)" fill="none" stroke-linejoin="miter" d="M 51.833563 55.428908 C 56.56273 55.428908 60.984605 56.319533 65.099189 58.095575 C 69.213772 59.871616 72.854398 62.324742 76.021065 65.449742 C 79.187731 68.559117 81.66169 72.194534 83.437732 76.345576 C 85.213774 80.496618 86.104399 84.949743 86.104399 89.699743 L 86.104399 124.001829 L 57.62523 124.001829 L 57.62523 89.699743 C 57.62523 88.11641 57.057522 86.736202 55.916897 85.559118 C 54.776272 84.361201 53.416896 83.762243 51.833563 83.762243 C 50.172105 83.762243 48.760646 84.361201 47.604396 85.559118 C 46.463771 86.736202 45.890854 88.11641 45.890854 89.699743 C 45.890854 91.283077 46.463771 92.673702 47.604396 93.871619 C 48.760646 95.048702 50.172105 95.637244 51.833563 95.637244 L 55.974188 95.637244 L 55.974188 124.001829 L 51.833563 124.001829 C 47.078354 124.001829 42.630437 123.111204 38.474187 121.335162 C 34.323145 119.55912 30.68252 117.085162 27.55752 113.918495 C 24.427311 110.751828 21.974186 107.111203 20.198144 102.996619 C 18.422102 98.882036 17.531477 94.449744 17.531477 89.699743 C 17.531477 84.949743 18.422102 80.496618 20.198144 76.345576 C 21.974186 72.194534 24.427311 68.559117 27.55752 65.449742 C 30.68252 62.324742 34.323145 59.871616 38.474187 58.095575 C 42.630437 56.319533 47.078354 55.428908 51.833563 55.428908 Z M 51.833563 55.428908 " stroke="#fff9f9" stroke-width="8.900025" stroke-opacity="1" stroke-miterlimit="4"/><g fill="#171616" fill-opacity="1"><g transform="translate(193.21858, 231.025972)"><g><path d="M 26.609375 -51.4375 C 30.171875 -51.4375 33.492188 -50.769531 36.578125 -49.4375 C 39.660156 -48.101562 42.390625 -46.265625 44.765625 -43.921875 C 47.140625 -41.578125 48.992188 -38.847656 50.328125 -35.734375 C 51.660156 -32.617188 52.328125 -29.28125 52.328125 -25.71875 L 52.328125 0 L 30.96875 0 L 30.96875 -25.71875 C 30.96875 -26.90625 30.535156 -27.941406 29.671875 -28.828125 C 28.816406 -29.722656 27.796875 -30.171875 26.609375 -30.171875 C 25.359375 -30.171875 24.300781 -29.722656 23.4375 -28.828125 C 22.582031 -27.941406 22.15625 -26.90625 22.15625 -25.71875 C 22.15625 -24.53125 22.582031 -23.488281 23.4375 -22.59375 C 24.300781 -21.707031 25.359375 -21.265625 26.609375 -21.265625 L 29.71875 -21.265625 L 29.71875 0 L 26.609375 0 C 23.046875 0 19.707031 -0.664062 16.59375 -2 C 13.476562 -3.332031 10.75 -5.1875 8.40625 -7.5625 C 6.0625 -9.9375 4.222656 -12.664062 2.890625 -15.75 C 1.554688 -18.832031 0.890625 -22.15625 0.890625 -25.71875 C 0.890625 -29.28125 1.554688 -32.617188 2.890625 -35.734375 C 4.222656 -38.847656 6.0625 -41.578125 8.40625 -43.921875 C 10.75 -46.265625 13.476562 -48.101562 16.59375 -49.4375 C 19.707031 -50.769531 23.046875 -51.4375 26.609375 -51.4375 Z M 26.609375 -51.4375 "/></g></g></g><g fill="#171616" fill-opacity="1"><g transform="translate(250.972972, 231.025972)"><g><path d="M 32.578125 -49.921875 L 32.578125 -29.015625 L 24.125 -29.015625 C 23.226562 -29.015625 22.78125 -28.566406 22.78125 -27.671875 L 22.78125 0 L 0.890625 0 L 0.890625 -26.78125 C 0.890625 -31.46875 1.894531 -35.53125 3.90625 -38.96875 C 5.925781 -42.414062 8.734375 -45.101562 12.328125 -47.03125 C 15.921875 -48.957031 20.03125 -49.921875 24.65625 -49.921875 Z M 32.578125 -49.921875 "/></g></g></g><g fill="#171616" fill-opacity="1"><g transform="translate(235.968109, 179.507163)"><g><path d="M 2.5 -9.515625 L 7.71875 -7.125 L 5.90625 -5.453125 L 1.171875 -7.71875 L -0.828125 -5.875 L 2.484375 -2.296875 L 0.796875 -0.734375 L -7.484375 -9.703125 L -3.609375 -13.28125 C -3.046875 -13.800781 -2.460938 -14.164062 -1.859375 -14.375 C -1.265625 -14.582031 -0.671875 -14.601562 -0.078125 -14.4375 C 0.503906 -14.269531 1.082031 -13.878906 1.65625 -13.265625 C 2.195312 -12.671875 2.535156 -12.050781 2.671875 -11.40625 C 2.816406 -10.769531 2.757812 -10.140625 2.5 -9.515625 Z M -2.4375 -11.546875 L -4.390625 -9.75 L -2.1875 -7.359375 L -0.234375 -9.15625 C 0.210938 -9.570312 0.457031 -9.992188 0.5 -10.421875 C 0.550781 -10.859375 0.398438 -11.269531 0.046875 -11.65625 C -0.304688 -12.039062 -0.695312 -12.21875 -1.125 -12.1875 C -1.5625 -12.164062 -2 -11.953125 -2.4375 -11.546875 Z M -2.4375 -11.546875 "/></g></g></g><g fill="#171616" fill-opacity="1"><g transform="translate(245.846157, 170.871829)"><g><path d="M 2.359375 -0.9375 L 0.109375 -0.046875 L -0.375 -12.96875 L 1.96875 -13.890625 L 10.46875 -4.140625 L 8.203125 -3.25 L 6.515625 -5.28125 L 2.1875 -3.578125 Z M 1.734375 -11.109375 L 2.046875 -5.6875 L 5.171875 -6.921875 Z M 1.734375 -11.109375 "/></g></g></g><g fill="#171616" fill-opacity="1"><g transform="translate(258.284141, 166.008266)"><g><path d="M 3.390625 0.140625 L 1.09375 0.046875 L 1.578125 -12.140625 L 5.375 -11.984375 L 7.53125 -2.484375 L 10.40625 -11.78125 L 14.25 -11.625 L 13.765625 0.5625 L 11.453125 0.46875 L 11.875 -10 L 8.5625 0.34375 L 6.296875 0.25 L 3.8125 -10.265625 Z M 3.390625 0.140625 "/></g></g></g><g fill="#171616" fill-opacity="1"><g transform="translate(275.172773, 167.907945)"><g><path d="M 3.15625 1.234375 L 1.015625 0.390625 L 5.453125 -10.984375 L 7.59375 -10.140625 Z M 3.15625 1.234375 "/></g></g></g><g fill="#171616" fill-opacity="1"><g transform="translate(281.706713, 170.33684)"><g><path d="M 9.8125 0.859375 L 8.3125 6.40625 L 6.375 4.90625 L 7.8125 -0.125 L 5.65625 -1.796875 L 2.6875 2.0625 L 0.859375 0.671875 L 8.296875 -9 L 12.46875 -5.796875 C 13.070312 -5.328125 13.53125 -4.816406 13.84375 -4.265625 C 14.15625 -3.710938 14.28125 -3.128906 14.21875 -2.515625 C 14.15625 -1.898438 13.863281 -1.257812 13.34375 -0.59375 C 12.851562 0.0390625 12.300781 0.476562 11.6875 0.71875 C 11.082031 0.957031 10.457031 1.003906 9.8125 0.859375 Z M 10.96875 -4.359375 L 8.875 -5.96875 L 6.890625 -3.390625 L 8.984375 -1.78125 C 9.472656 -1.40625 9.929688 -1.226562 10.359375 -1.25 C 10.785156 -1.269531 11.160156 -1.492188 11.484375 -1.921875 C 11.804688 -2.328125 11.921875 -2.738281 11.828125 -3.15625 C 11.734375 -3.582031 11.445312 -3.984375 10.96875 -4.359375 Z M 10.96875 -4.359375 "/></g></g></g><g fill="#171616" fill-opacity="1"><g transform="translate(291.843081, 178.74302)"><g><path d="M 4.921875 7.8125 L 0.578125 0.921875 L 10.890625 -5.59375 L 15.234375 1.296875 L 13.5 2.40625 L 10.390625 -2.53125 L 7.84375 -0.9375 L 10.640625 3.484375 L 8.921875 4.578125 L 6.125 0.15625 L 3.5625 1.78125 L 6.671875 6.71875 Z M 4.921875 7.8125 "/></g></g></g><g fill="#171616" fill-opacity="1"><g transform="translate(298.011165, 189.201263)"><g><path d="M 2.109375 9.296875 L 0.09375 0.421875 L 1.625 0.078125 L 11.359375 4.203125 L 10.0625 -1.484375 L 12.078125 -1.9375 L 14.015625 6.578125 L 12.390625 6.953125 L 2.78125 2.890625 L 4.125 8.84375 Z M 2.109375 9.296875 "/></g></g></g></svg>