<svg xmlns="http://www.w3.org/2000/svg" xmlns:xlink="http://www.w3.org/1999/xlink" width="500" zoomAndPan="magnify" viewBox="0 0 375 374.999991" height="500" preserveAspectRatio="xMidYMid meet" version="1.0"><defs><g/></defs><g fill="#fff9f9" fill-opacity="1"><g transform="translate(88.021853, 228.768911)"><g><path d="M 31.421875 -85.5625 L 31.421875 -34.21875 C 31.421875 -32.507812 32.03125 -31.039062 33.25 -29.8125 C 34.46875 -28.59375 35.929688 -27.984375 37.640625 -27.984375 C 39.359375 -27.984375 40.828125 -28.59375 42.046875 -29.8125 C 43.265625 -31.039062 43.875 -32.507812 43.875 -34.21875 C 43.875 -35.9375 43.265625 -37.425781 42.046875 -38.6875 C 40.828125 -39.945312 39.359375 -40.578125 37.640625 -40.578125 L 33.125 -40.578125 L 33.125 -70.65625 L 37.640625 -70.65625 C 42.703125 -70.65625 47.410156 -69.695312 51.765625 -67.78125 C 56.128906 -65.863281 59.976562 -63.191406 63.3125 -59.765625 C 66.65625 -56.347656 69.265625 -52.4375 71.140625 -48.03125 C 73.015625 -43.632812 73.953125 -38.910156 73.953125 -33.859375 C 73.953125 -28.890625 73.015625 -24.203125 71.140625 -19.796875 C 69.265625 -15.398438 66.65625 -11.53125 63.3125 -8.1875 C 59.976562 -4.84375 56.128906 -2.234375 51.765625 -0.359375 C 47.410156 1.503906 42.703125 2.4375 37.640625 2.4375 C 32.671875 2.4375 27.984375 1.503906 23.578125 -0.359375 C 19.179688 -2.234375 15.3125 -4.84375 11.96875 -8.1875 C 8.632812 -11.53125 6.03125 -15.398438 4.15625 -19.796875 C 2.28125 -24.203125 1.34375 -28.890625 1.34375 -33.859375 L 1.34375 -85.5625 Z M 31.421875 -85.5625 "/></g></g></g><path stroke-linecap="butt" transform="matrix(1.676012, 0, 0, 1.676012, 144.358574, 113.008908)" fill="none" stroke-linejoin="miter" d="M 23.579987 41.511122 C 24.370088 41.086938 24.833894 40.490284 24.973735 39.728151 C 25.111245 38.954364 24.943436 38.259821 24.465646 37.644521 C 23.987856 37.019898 23.197755 36.707587 22.095343 36.707587 C 21.167731 36.672627 20.463865 36.933663 19.986075 37.488365 C 19.508286 38.036076 19.261233 38.672352 19.244919 39.401855 C 19.226273 40.131359 19.438365 40.781619 19.881195 41.354967 C 20.324024 41.918992 21.02789 42.201004 21.990462 42.201004 L 37.081627 42.201004 L 37.081627 55.001109 L 21.990462 55.001109 C 19.855557 55.001109 17.862824 54.600232 16.014593 53.803139 C 14.166363 53.003715 12.530224 51.89198 11.106177 50.467933 C 9.682131 49.046217 8.572726 47.410078 7.773302 45.559517 C 6.973878 43.711286 6.575332 41.718553 6.575332 39.583648 C 6.575332 36.779838 7.204616 34.225411 8.463184 31.915705 C 9.731075 29.599007 11.528031 27.741454 13.854051 26.343044 C 16.180072 24.937643 18.944261 24.217462 22.146618 24.182502 C 23.813055 24.182502 25.493477 24.343319 27.185552 24.662623 C 28.877627 24.974934 30.471813 25.578581 31.96345 26.473563 C 33.457417 27.359222 34.69967 28.673726 35.68788 30.417076 C 36.114394 31.165225 36.422044 32.055546 36.61316 33.088038 C 36.811268 34.111207 36.88585 35.167006 36.834575 36.250773 C 36.780969 37.336871 36.559555 38.350718 36.170331 39.296975 C 35.778776 40.236239 35.17513 40.972735 34.359391 41.511122 Z M 23.579987 41.511122 " stroke="#171616" stroke-width="3.999998" stroke-opacity="1" stroke-miterlimit="4"/><g fill="#fff9f9" fill-opacity="1"><g transform="translate(154.57177, 205.189547)"><g><path d="M 29.3125 -22.609375 C 30.625 -23.328125 31.398438 -24.328125 31.640625 -25.609375 C 31.878906 -26.890625 31.59375 -28.050781 30.78125 -29.09375 C 29.976562 -30.132812 28.65625 -30.65625 26.8125 -30.65625 C 25.257812 -30.71875 24.082031 -30.285156 23.28125 -29.359375 C 22.476562 -28.429688 22.0625 -27.359375 22.03125 -26.140625 C 22 -24.921875 22.351562 -23.832031 23.09375 -22.875 C 23.84375 -21.925781 25.023438 -21.453125 26.640625 -21.453125 L 51.921875 -21.453125 L 51.921875 0 L 26.640625 0 C 23.054688 0 19.710938 -0.664062 16.609375 -2 C 13.515625 -3.34375 10.773438 -5.207031 8.390625 -7.59375 C 6.015625 -9.976562 4.15625 -12.71875 2.8125 -15.8125 C 1.46875 -18.914062 0.796875 -22.253906 0.796875 -25.828125 C 0.796875 -30.535156 1.851562 -34.828125 3.96875 -38.703125 C 6.09375 -42.578125 9.101562 -45.6875 13 -48.03125 C 16.90625 -50.382812 21.539062 -51.59375 26.90625 -51.65625 C 29.707031 -51.65625 32.519531 -51.382812 35.34375 -50.84375 C 38.175781 -50.3125 40.84375 -49.300781 43.34375 -47.8125 C 45.84375 -46.320312 47.929688 -44.117188 49.609375 -41.203125 C 50.316406 -39.953125 50.832031 -38.460938 51.15625 -36.734375 C 51.488281 -35.003906 51.609375 -33.226562 51.515625 -31.40625 C 51.429688 -29.59375 51.0625 -27.894531 50.40625 -26.3125 C 49.75 -24.738281 48.738281 -23.503906 47.375 -22.609375 Z M 29.3125 -22.609375 "/></g></g></g><path stroke-linecap="butt" transform="matrix(1.676012, 0, 0, 1.676012, 177.515851, 137.987276)" fill="none" stroke-linejoin="miter" d="M 23.887024 24.181425 C 26.012606 24.181425 28.000678 24.579972 29.851239 25.379396 C 31.69947 26.178819 33.335609 27.281232 34.759655 28.686633 C 36.181371 30.085042 37.293107 31.71652 38.092531 33.581065 C 38.889624 35.447941 39.290501 37.449997 39.290501 39.584902 L 39.290501 55.000032 L 26.490396 55.000032 L 26.490396 39.584902 C 26.490396 38.871713 26.234021 38.251752 25.723602 37.722687 C 25.210851 37.1843 24.597882 36.916271 23.887024 36.916271 C 23.141206 36.916271 22.50726 37.1843 21.985188 37.722687 C 21.474768 38.251752 21.218393 38.871713 21.218393 39.584902 C 21.218393 40.29576 21.474768 40.920383 21.985188 41.45877 C 22.50726 41.987835 23.141206 42.253533 23.887024 42.253533 L 25.749239 42.253533 L 25.749239 55.000032 L 23.887024 55.000032 C 21.75212 55.000032 19.750064 54.601486 17.885518 53.802062 C 16.018642 53.002638 14.382503 51.893233 12.977102 50.469187 C 11.56937 49.04514 10.466958 47.409001 9.669864 45.56077 C 8.87044 43.71254 8.471894 41.719807 8.471894 39.584902 C 8.471894 37.449997 8.87044 35.447941 9.669864 33.581065 C 10.466958 31.71652 11.56937 30.085042 12.977102 28.686633 C 14.382503 27.281232 16.018642 26.178819 17.885518 25.379396 C 19.750064 24.579972 21.75212 24.181425 23.887024 24.181425 Z M 23.887024 24.181425 " stroke="#171616" stroke-width="3.999998" stroke-opacity="1" stroke-miterlimit="4"/><g fill="#fff9f9" fill-opacity="1"><g transform="translate(190.819193, 230.167915)"><g><path d="M 26.71875 -51.65625 C 30.289062 -51.65625 33.625 -50.984375 36.71875 -49.640625 C 39.820312 -48.304688 42.566406 -46.460938 44.953125 -44.109375 C 47.335938 -41.753906 49.195312 -39.007812 50.53125 -35.875 C 51.875 -32.75 52.546875 -29.398438 52.546875 -25.828125 L 52.546875 0 L 31.109375 0 L 31.109375 -25.828125 C 31.109375 -27.015625 30.675781 -28.054688 29.8125 -28.953125 C 28.945312 -29.847656 27.914062 -30.296875 26.71875 -30.296875 C 25.46875 -30.296875 24.410156 -29.847656 23.546875 -28.953125 C 22.679688 -28.054688 22.25 -27.015625 22.25 -25.828125 C 22.25 -24.640625 22.679688 -23.597656 23.546875 -22.703125 C 24.410156 -21.804688 25.46875 -21.359375 26.71875 -21.359375 L 29.84375 -21.359375 L 29.84375 0 L 26.71875 0 C 23.144531 0 19.789062 -0.664062 16.65625 -2 C 13.53125 -3.34375 10.789062 -5.207031 8.4375 -7.59375 C 6.09375 -9.976562 4.25 -12.71875 2.90625 -15.8125 C 1.5625 -18.914062 0.890625 -22.253906 0.890625 -25.828125 C 0.890625 -29.398438 1.5625 -32.75 2.90625 -35.875 C 4.25 -39.007812 6.09375 -41.753906 8.4375 -44.109375 C 10.789062 -46.460938 13.53125 -48.304688 16.65625 -49.640625 C 19.789062 -50.984375 23.144531 -51.65625 26.71875 -51.65625 Z M 26.71875 -51.65625 "/></g></g></g><g fill="#fff9f9" fill-opacity="1"><g transform="translate(248.643887, 230.167915)"><g><path d="M 32.71875 -50.140625 L 32.71875 -29.140625 L 24.21875 -29.140625 C 23.320312 -29.140625 22.875 -28.691406 22.875 -27.796875 L 22.875 0 L 0.890625 0 L 0.890625 -26.90625 C 0.890625 -31.613281 1.898438 -35.691406 3.921875 -39.140625 C 5.953125 -42.597656 8.769531 -45.296875 12.375 -47.234375 C 15.976562 -49.171875 20.101562 -50.140625 24.75 -50.140625 Z M 32.71875 -50.140625 "/></g></g></g><g fill="#fff9f9" fill-opacity="1"><g transform="translate(234.150225, 180.442442)"><g><path d="M 2.53125 -9.640625 L 7.8125 -7.203125 L 5.984375 -5.515625 L 1.203125 -7.828125 L -0.8125 -5.953125 L 2.53125 -2.328125 L 0.796875 -0.734375 L -7.578125 -9.796875 L -3.65625 -13.421875 C -3.082031 -13.953125 -2.492188 -14.320312 -1.890625 -14.53125 C -1.285156 -14.75 -0.679688 -14.769531 -0.078125 -14.59375 C 0.515625 -14.425781 1.101562 -14.03125 1.6875 -13.40625 C 2.226562 -12.820312 2.566406 -12.203125 2.703125 -11.546875 C 2.847656 -10.890625 2.789062 -10.253906 2.53125 -9.640625 Z M -2.484375 -11.6875 L -4.4375 -9.875 L -2.203125 -7.453125 L -0.25 -9.265625 C 0.207031 -9.691406 0.460938 -10.117188 0.515625 -10.546875 C 0.578125 -10.972656 0.425781 -11.390625 0.0625 -11.796875 C -0.300781 -12.179688 -0.703125 -12.363281 -1.140625 -12.34375 C -1.578125 -12.320312 -2.023438 -12.101562 -2.484375 -11.6875 Z M -2.484375 -11.6875 "/></g></g></g><g fill="#fff9f9" fill-opacity="1"><g transform="translate(243.952253, 171.828336)"><g><path d="M 2.390625 -0.9375 L 0.109375 -0.046875 L -0.375 -13.125 L 2 -14.0625 L 10.578125 -4.1875 L 8.3125 -3.28125 L 6.59375 -5.34375 L 2.21875 -3.625 Z M 1.734375 -11.234375 L 2.078125 -5.734375 L 5.25 -6.984375 Z M 1.734375 -11.234375 "/></g></g></g><g fill="#fff9f9" fill-opacity="1"><g transform="translate(256.281808, 166.954812)"><g><path d="M 3.4375 0.140625 L 1.09375 0.046875 L 1.59375 -12.28125 L 5.453125 -12.125 L 7.625 -2.515625 L 10.53125 -11.921875 L 14.421875 -11.765625 L 13.921875 0.5625 L 11.59375 0.46875 L 12.015625 -10.125 L 8.65625 0.34375 L 6.375 0.25 L 3.859375 -10.375 Z M 3.4375 0.140625 "/></g></g></g><g fill="#fff9f9" fill-opacity="1"><g transform="translate(273.169441, 168.835043)"><g><path d="M 3.203125 1.25 L 1.015625 0.390625 L 5.5 -11.109375 L 7.6875 -10.25 Z M 3.203125 1.25 "/></g></g></g><g fill="#fff9f9" fill-opacity="1"><g transform="translate(279.625413, 171.205495)"><g><path d="M 9.921875 0.875 L 8.421875 6.484375 L 6.453125 4.96875 L 7.921875 -0.125 L 5.734375 -1.8125 L 2.71875 2.09375 L 0.859375 0.671875 L 8.390625 -9.109375 L 12.625 -5.859375 C 13.238281 -5.390625 13.703125 -4.875 14.015625 -4.3125 C 14.335938 -3.757812 14.460938 -3.164062 14.390625 -2.53125 C 14.328125 -1.90625 14.035156 -1.253906 13.515625 -0.578125 C 13.023438 0.0546875 12.46875 0.492188 11.84375 0.734375 C 11.21875 0.984375 10.578125 1.03125 9.921875 0.875 Z M 11.109375 -4.40625 L 8.984375 -6.046875 L 6.984375 -3.4375 L 9.109375 -1.796875 C 9.597656 -1.421875 10.054688 -1.238281 10.484375 -1.25 C 10.910156 -1.269531 11.289062 -1.492188 11.625 -1.921875 C 11.945312 -2.347656 12.0625 -2.773438 11.96875 -3.203125 C 11.882812 -3.628906 11.597656 -4.03125 11.109375 -4.40625 Z M 11.109375 -4.40625 "/></g></g></g><g fill="#fff9f9" fill-opacity="1"><g transform="translate(289.735481, 179.547621)"><g><path d="M 4.984375 7.90625 L 0.578125 0.921875 L 11.015625 -5.671875 L 15.421875 1.3125 L 13.671875 2.421875 L 10.515625 -2.578125 L 7.9375 -0.953125 L 10.765625 3.515625 L 9 4.625 L 6.171875 0.15625 L 3.59375 1.78125 L 6.75 6.78125 Z M 4.984375 7.90625 "/></g></g></g><g fill="#fff9f9" fill-opacity="1"><g transform="translate(295.89685, 189.933498)"><g><path d="M 2.140625 9.40625 L 0.09375 0.421875 L 1.65625 0.0625 L 11.5 4.25 L 10.1875 -1.5 L 12.203125 -1.953125 L 14.171875 6.65625 L 12.546875 7.03125 L 2.8125 2.90625 L 4.1875 8.9375 Z M 2.140625 9.40625 "/></g></g></g></svg>